<svg xmlns:rdf="http://www.w3.org/1999/02/22-rdf-syntax-ns#" xmlns="http://www.w3.org/2000/svg" xmlns:cc="http://web.resource.org/cc/" xmlns:xlink="http://www.w3.org/1999/xlink" xmlns:dc="http://purl.org/dc/elements/1.1/" xmlns:svg="http://www.w3.org/2000/svg" xmlns:inkscape="http://www.inkscape.org/namespaces/inkscape" xmlns:sodipodi="http://sodipodi.sourceforge.net/DTD/sodipodi-0.dtd" xmlns:ns1="http://sozi.baierouge.fr" xml:space="preserve" version="1.1" width="100%" height="100%" viewBox="0 0 41.61109924316406 40"><rect id="svgEditorBackground" x="0" y="0" width="41.61109924316406" height="40" style="fill: none; stroke: none;"/>


<path style="fill: rgb(41, 47, 63); stroke: none;" transform="" d="M 23.9531 6.64063 C 27.3367 7.56877 28.9687 7.35208 34.8125 3.60938 L 23.9531 6.71875 Z"/>
<path style="fill: rgb(41, 47, 63); stroke: none;" d="M 13 9.32813 L 21 7 C 18.4855 4.13723 15.0606 5.08324 13 9.32813 Z" transform=""/>
<path style="fill:#818388; stroke:none;" d="M21 7L27 6L21 7z"/>
<path style="fill:#484852; stroke:none;" d="M16 6L20 7L16 6z"/>
<path style="fill:#292f3f; stroke:none;" d="M 5 16 L 14 14 C 14.0043 19.5321 15.1042 23.8305 17 29 L 19 24 C 25.0312 27.3867 23.1678 30.9577 18.2031 40.1406 C 26.6676 39.9049 31.345 40 39 40 C 38.9865 36.8058 39.4029 34.7292 36 34 L 37 24 L 28 26 L 22.0781 9.3125 L 29.5469 6.60938 C 20.6312 3.83506 10.0671 9.07955 5 16 Z" transform=""/>
<path style="fill:#8e8d96; stroke:none;" d="M28.6667 7.33333L29.3333 7.66667L28.6667 7.33333z"/>

<path style="fill:#5b5d67; stroke:none;" d="M24.6667 8.33333L25.3333 8.66667L24.6667 8.33333z"/>
<path style="fill:#95959b; stroke:none;" d="M23 10L28 9L23 10z"/>
<path style="fill: rgb(41, 47, 63); stroke: none;" d="M 21.7656 8.76563 L 22.3125 10.2031 L 24 8.29688 L 21.7656 8.76563 Z" transform=""/>
<path style="fill:#717280; stroke:none;" d="M8.66667 12.3333L9.33333 12.6667L8.66667 12.3333z"/>
<path style="fill:#6d7d7d; stroke:none;" d="M23.3333 12.6667L23.6667 13.3333L23.3333 12.6667z"/>
<path style="fill:#686a72; stroke:none;" d="M5 13L8 14L5 13z"/>

<path style="fill:#4f595f; stroke:none;" d="M23.3333 14.6667L23.6667 15.3333L23.3333 14.6667z"/>
<path style="fill:#7c7c8a; stroke:none;" d="M8.66667 15.3333L9.33333 15.6667L8.66667 15.3333z"/>
<path style="fill:#95959b; stroke:none;" d="M7 16L8 17L7 16z"/>
<path style="fill:#8d9399; stroke:none;" d="M24 16L27 21L24 16z"/>

<path style="fill:#52525e; stroke:none;" d="M13.3333 20.6667L13.6667 21.3333L13.3333 20.6667z"/>
<path style="fill:#686a72; stroke:none;" d="M27 21L27 24L27 21z"/>
<path style="fill:#818388; stroke:none;" d="M34 22L37 23L34 22z"/>
<path style="fill:#717280; stroke:none;" d="M15 23L15 26L15 23z"/>
<path style="fill:#818388; stroke:none;" d="M28.3333 23.6667L28.6667 24.3333L28.3333 23.6667z"/>
<path style="fill:#4f595f; stroke:none;" d="M33 23L37 24L33 23z"/>

<path style="fill:#9b9ca6; stroke:none;" d="M19.3333 24.6667L19.6667 25.3333L19.3333 24.6667z"/>
<path style="fill:#5b5d67; stroke:none;" d="M30.6667 24.3333L31.3333 24.6667L30.6667 24.3333z"/>
<path style="fill:#686a72; stroke:none;" d="M21.6667 25.3333L22.3333 25.6667L21.6667 25.3333z"/>
<path style="fill:#5b5d67; stroke:none;" d="M28.6667 25.3333L29.3333 25.6667L28.6667 25.3333z"/>
<path style="fill:#95959b; stroke:none;" d="M15.3333 26.6667L15.6667 27.3333L15.3333 26.6667z"/>
<path style="fill:#8d9399; stroke:none;" d="M18 26L18 29L18 26z"/>
<path style="fill:#9b9ca6; stroke:none;" d="M22.3333 26.6667L22.6667 27.3333L22.3333 26.6667z"/>
<path style="fill:#818388; stroke:none;" d="M23 26L23 30L23 26z"/>

<path style="fill:#a3a9af; stroke:none;" d="M37 28L37 32L37 28z"/>

<path style="fill:#717280; stroke:none;" d="M23 30L22 33L23 30z"/>
<path style="fill:#7c7c8a; stroke:none;" d="M36 31L39 33L36 31z"/>

<path style="fill:#52525e; stroke:none;" d="M36 33L39 34L36 33M20 36L23 38L20 36z"/>
<path style="fill:#7c7c8a; stroke:none;" d="M20 37L24 40L20 37z"/>
<path style="fill:#4f595f; stroke:none;" d="M23 38L26 40L23 38z"/>
</svg>